<?xml version="1.0" encoding="utf-8"?>
<!-- Generator: Adobe Illustrator 18.1.1, SVG Export Plug-In . SVG Version: 6.00 Build 0)  -->
<svg version="1.1" id="Layer_1" xmlns="http://www.w3.org/2000/svg" xmlns:xlink="http://www.w3.org/1999/xlink" x="0px" y="0px"
	 viewBox="0 0 195.9 195.9" enable-background="new 0 0 195.9 195.9" xml:space="preserve">
<g>
	<g>
		<path fill="#9E9E9E" d="M87.5,108.5c0-2,0.2-3.6,0.5-5.1c0.3-1.4,0.8-2.7,1.4-3.9c0.6-1.2,1.4-2.4,2.3-3.5c0.9-1.2,2-2.4,3.2-3.6
			l8-9.4c0.9-1.1,1.5-2,1.7-2.6c0.3-0.6,0.5-2.1,0.5-4.2V60c0-0.9-0.5-1.8-1.2-2.6c-0.8-0.9-2.7-1.4-5.5-1.4c-2.9,0-4.7,0.5-5.5,1.4
			s-1.2,1.8-1.2,2.6v17.1H72V58.9c0-6.2,2-10.9,6.1-14.1c3.9-3.2,10.6-4.8,20-4.8c17.3,0,25.9,6.5,25.9,19.7v16.8
			c0,2.3-0.2,4.2-0.5,5.9c-0.3,1.7-0.8,3-1.5,4.4c-0.6,1.2-1.5,2.4-2.4,3.5c-0.9,1.1-2,2.3-3,3.5l-7.3,7.7c-1.7,1.8-2.4,4.4-2.4,8
			v15.6H87.5V108.5z M87.5,136.6h19.2v19.8H87.5V136.6z"/>
	</g>
	<circle fill="none" stroke="#4869A6" stroke-width="7.2598" stroke-miterlimit="10" cx="97.9" cy="98" r="94.3"/>
</g>
</svg>
