<?xml version="1.0" encoding="utf-8"?>
<!-- Generator: Adobe Illustrator 18.1.1, SVG Export Plug-In . SVG Version: 6.00 Build 0)  -->
<svg version="1.1" id="Layer_1" xmlns="http://www.w3.org/2000/svg" xmlns:xlink="http://www.w3.org/1999/xlink" x="0px" y="0px"
	 viewBox="-693 694.2 512 512" enable-background="new -693 694.2 512 512" xml:space="preserve">
<g>
	<path fill="#4869A6" d="M-595.7,1176.4c-23.3,0-45.2-9.1-61.7-25.6c-34-34-34-89.4,0-123.4l269.7-269.7
		C-365.9,736-337,724-306.3,724c30.8,0,59.7,12,81.4,33.7c21.7,21.7,33.7,50.6,33.7,81.4c0,30.8-12,59.6-33.7,81.4l-212.3,212.3
		c-6.4,6.4-16.7,6.4-23.1,0c-6.4-6.4-6.4-16.7,0-23.1l212.3-212.3c15.6-15.6,24.2-36.3,24.2-58.3c0-22-8.6-42.7-24.2-58.3
		c-15.6-15.6-36.3-24.2-58.3-24.2c-22,0-42.7,8.6-58.3,24.2l-269.7,269.7c-21.3,21.3-21.3,55.9,0,77.2c20.6,20.6,56.6,20.6,77.2,0
		L-376,946.7c4.9-4.9,7.7-11.7,7.7-18.7c0-7-2.8-13.7-7.8-18.7c-10.3-10.3-27.1-10.3-37.4,0L-537,1033c-6.4,6.4-16.7,6.4-23.1,0
		c-6.4-6.4-6.4-16.7,0-23.1l123.7-123.7c23-23,60.5-23,83.5,0c11.2,11.2,17.3,26,17.3,41.8c0,15.5-6.3,30.8-17.3,41.8L-534,1150.8
		C-550.4,1167.3-572.3,1176.4-595.7,1176.4z"/>
</g>
</svg>
