<?xml version="1.0" encoding="utf-8"?>
<!-- Generator: Adobe Illustrator 18.1.1, SVG Export Plug-In . SVG Version: 6.00 Build 0)  -->
<svg version="1.1" id="Layer_1" xmlns="http://www.w3.org/2000/svg" xmlns:xlink="http://www.w3.org/1999/xlink" x="0px" y="0px"
	 viewBox="0 0 20 20" enable-background="new 0 0 20 20" xml:space="preserve">
<g>
	<g>
		<path fill="#CE5555" d="M11.9,10.1l7.4-7.4c0.5-0.5,0.5-1.4,0-1.9c-0.5-0.5-1.4-0.5-1.9,0L10,8.2L2.6,0.7C2,0.2,1.2,0.2,0.7,0.7
			s-0.5,1.4,0,1.9l7.4,7.4l-7.4,7.4c-0.5,0.5-0.5,1.4,0,1.9c0.5,0.5,1.4,0.5,1.9,0L10,12l7.4,7.4c0.5,0.5,1.4,0.5,1.9,0
			c0.5-0.5,0.5-1.4,0-1.9L11.9,10.1z"/>
	</g>
</g>
</svg>
