<?xml version="1.0" encoding="utf-8"?>
<!-- Generator: Adobe Illustrator 18.1.1, SVG Export Plug-In . SVG Version: 6.00 Build 0)  -->
<svg version="1.1" id="Layer_1" xmlns="http://www.w3.org/2000/svg" xmlns:xlink="http://www.w3.org/1999/xlink" x="0px" y="0px"
	 viewBox="0 0 268.5 237.9" enable-background="new 0 0 268.5 237.9" xml:space="preserve">
<g>
	<path fill="#4869A6" d="M68.2,92.5c0-4.7,0.1-9.4,0-14c0-1.8,0.6-2.5,2.4-2.5c5.2,0.1,10.4,0.1,15.5,0c2,0,2.5,0.8,2.5,2.7
		c-0.1,7,0,13.9,0,20.9c0,3.6,1,5.2,4.6,5.9c2.4,0.5,5,0.5,7.4,0.1c3.4-0.6,4.6-2.3,4.7-5.9c0.1-4.8,0.1-9.6,0-14.3
		c0-3.1-1.1-5.7-3.6-7.8c-8-6.8-15.8-13.7-23.7-20.5c-6.4-5.5-9.7-12.1-9.2-20.7c0.3-5.4,0-10.8,0.1-16.1c0-10.7,4.3-16.3,14.7-18.6
		c9.2-2.1,18.5-2.1,27.8,0c11.9,2.7,13.8,9.8,14.3,18.8c0.4,6.7,0,13.5,0.1,20.3c0,2-0.7,2.6-2.6,2.6c-5.3-0.1-10.6-0.1-15.8,0
		c-1.9,0-2.6-0.6-2.6-2.6c0.1-5.6-0.1-11.2,0.1-16.7c0.1-2.8-1.3-4.5-3.8-4.9c-2.4-0.4-5-0.4-7.4-0.1c-2.9,0.4-4.4,2.4-4.3,5.5
		c0.1,3.9-0.3,7.8,0.3,11.6c0.4,2.3,1.7,5,3.5,6.6c7.9,7.6,16,15,24.2,22.2c5.8,5,9,10.9,8.5,18.7c-0.3,6.8-0.1,13.5-0.1,20.3
		c0,10.8-4.5,16.8-15,19.1c-9.8,2.2-19.7,2-29.5-0.4c-8.2-2-12.8-8.2-12.9-16.8C68.1,101.4,68.2,96.9,68.2,92.5z"/>
	<path fill="#4869A6" d="M0,62.2c0-14.9-0.1-29.9,0-44.8c0-7.2,3.7-12.4,10.4-14.7C18,0,25.9-0.4,33.7,0.4c2.8,0.3,5.6,0.5,8.2,1.1
		c9.8,2.4,14.1,7.9,14.3,18.1c0.1,8.8,0,17.5,0.1,26.3c0,2.2-0.8,2.7-2.8,2.7c-5.2-0.1-10.4-0.1-15.5,0c-2.1,0-2.8-0.7-2.7-2.8
		c0.1-7,0-13.9,0-20.9c0-4.6-2-6.3-7.4-6.3c-5.2,0-7.5,1.8-7.5,6.3c0,24.9,0,49.8,0,74.7c0,3.9,2,6,6,6.2c1.1,0.1,2.2,0.1,3.3,0
		c3.8-0.3,5.5-2.2,5.6-5.9c0-7.4,0.1-14.7,0-22.1c0-2.4,0.6-3.2,3-3.1c5.1,0.2,10.2,0.1,15.2,0c2,0,2.8,0.5,2.8,2.7
		c-0.1,9.2,0.1,18.3-0.1,27.5c-0.2,11.3-6,17.3-18.1,18.9c-7.7,1-15.5,1.1-23.1-0.5c-8.7-1.8-15-5.8-15.1-17.2C0,91.4,0,76.8,0,62.2
		L0,62.2z"/>
	<path fill="#4869A6" d="M160.4,20.5c0,10.3,0,20.1,0,30.2c1.1,0.1,2.2,0.2,3.2,0.2c7.2,0,14.3,0.1,21.5,0c1.9,0,2.7,0.6,2.6,2.6
		c-0.1,4.5-0.1,9,0,13.4c0.1,2.2-0.8,2.7-2.8,2.7c-8.1-0.1-16.1,0-24.4,0c0,11.7,0,23.2,0,35c1,0.1,2.1,0.2,3.1,0.2
		c7.4,0,14.7,0.1,22.1,0c1.9,0,2.7,0.5,2.6,2.5c-0.1,4.6-0.1,9.2,0,13.7c0,1.9-0.7,2.4-2.5,2.4c-14.5,0-29.1-0.1-43.6,0
		c-2.6,0-2.6-1.3-2.6-3.2c0-11.4,0-22.9,0-34.3c0-26.3,0-52.6,0-78.8c0-5.9-0.3-5,5.2-5c13.4,0,26.9,0,40.3-0.1
		c2.5,0,3.3,0.7,3.2,3.2c-0.2,4-0.2,8,0,11.9c0.1,2.7-0.6,3.7-3.5,3.6c-7-0.2-13.9-0.1-20.9-0.1C163,20.5,161.9,20.5,160.4,20.5z"/>
	<path fill="#4869A6" d="M257.3,153.9c0.9-0.4,2.1-1.1,3.3-1.4c4.5-1,7.8,1.7,7.9,6.4c0,5.7-0.3,11.4,0.1,17c0.4,6.4-5.5,8.8-10,5.8
		c-0.5-0.3-1-0.6-2-1.2c0,2.2,0.1,4-0.1,5.7c-0.1,0.7-0.7,1.4-1.1,2c-0.5-0.6-1.4-1.2-1.4-1.8c-0.1-10.7-0.1-21.5,0-32.2
		c0-0.6,0.5-1.2,0.8-1.7C255.5,153,256.3,153.4,257.3,153.9z M265.8,168c0-3,0.1-6,0-8.9c-0.1-2.4-0.9-4.2-3.9-4.1
		c-2.8,0.2-5.3,2-5.3,4.4c-0.1,5.6,0,11.1,0,16.7c0,2.5,2.4,4.3,5.2,4.5c2.9,0.2,3.9-1.5,4-4C265.9,173.7,265.8,170.8,265.8,168z"/>
	<path fill="#4869A6" d="M88.6,180.6c0,2.2,0.2,3.8-0.1,5.3c-0.1,0.9-0.8,1.7-1.3,2.5c-0.4-0.9-1.2-1.7-1.2-2.6
		c-0.1-7.2-0.1-14.3-0.1-21.5c0-3.3,0-6.6,0-9.8c0-0.6,0.5-1.2,0.7-1.8c0.6,0.2,1.1,0.6,1.7,0.7c0.6,0.1,1.4,0.3,1.9,0.1
		c6.4-2.7,10.2-0.1,10.2,6.8c0,5.2-0.3,10.4,0.1,15.5c0.5,6.7-5.8,8.9-10.2,5.8C90,181.4,89.6,181.2,88.6,180.6z M97.9,167.8
		c0-2.9,0.1-5.8,0-8.6c-0.1-3.3-1.2-4.3-4-4.2c-2.9,0.1-5.2,2.1-5.2,4.5c0,5.5,0,10.9,0,16.4c0,2.7,2.3,4.6,5.4,4.7
		c2.8,0,3.8-1,3.9-4.4C98,173.4,97.9,170.6,97.9,167.8z"/>
	<path fill="#4869A6" d="M228.4,153.8c2.9-0.3,5.5-0.9,8-0.8c2.5,0.1,3.6,2,3.6,4.4c0.1,7.7,0.1,15.3,0,23c0,0.7-0.8,1.3-1.3,2
		c-0.5-0.7-1.3-1.4-1.4-2.1c-0.1-7-0.1-13.9,0-20.9c0-2.4-0.1-4.5-3.3-4.4c-3.2,0-5.6,1.9-5.6,4.8c0,6.5,0,12.9,0,19.4
		c0,0.7,0.1,1.4-0.1,2.1c-0.1,0.5-0.8,1.2-1.1,1.1c-0.5-0.1-1.3-0.7-1.4-1.1c-0.2-1.3-0.1-2.6-0.1-3.9c0-10.1,0-20.1,0-30.2
		c0-0.7-0.2-1.5,0.1-2.1c0.3-0.8,0.9-1.4,1.4-2.1c0.4,0.7,1.1,1.4,1.1,2.1C228.5,148.1,228.4,151.2,228.4,153.8z"/>
	<path fill="#4869A6" d="M107.1,217.7c0,3.4,0,6.3,0,9.3c0,2.1,1.1,3.2,3.1,3.1c2.2-0.1,5,1,5.8-2.5c0.2-0.9,0-1.8,0.3-2.6
		c0.2-0.7,0.9-1.3,1.3-1.9c0.5,0.6,1.2,1.2,1.3,1.9c0.5,4.6-1.4,7.2-6.1,7.6c-4.9,0.4-8.8-0.8-8.5-7c0.3-5.6,0-11.3,0.1-17
		c0-4.3,0.7-5.3,4.9-6.1c6.1-1.1,10,0.8,9.8,7.3c-0.3,8-0.1,8-8,8C110,217.7,108.8,217.7,107.1,217.7z M107.1,215.2
		c2.7,0,5.1,0.1,7.4-0.1c0.6,0,1.6-1,1.6-1.6c0.1-2.2,0.2-4.4-0.2-6.5c-0.6-3.3-3.4-2.4-5.5-2.5c-1.7-0.1-3.2,0.5-3.3,2.6
		C107,209.7,107.1,212.3,107.1,215.2z"/>
	<path fill="#4869A6" d="M160.3,168.1c0,3.5,0,6.6,0,9.6c0,2,1.3,2.9,3.1,2.8c2.1-0.1,4.8,0.9,5.7-2.3c0.3-1,0.1-2.2,0.4-3.2
		c0.2-0.6,0.9-1.1,1.3-1.6c0.4,0.5,1.2,1,1.3,1.6c0.8,4.6-1.5,7.7-6.4,7.9c-5.6,0.2-8.4-1.4-8.1-7c0.2-5.7,0-11.3,0.1-17
		c0-4.2,0.7-5.3,4.9-6.1c6.1-1.1,10,0.9,9.8,7.3c-0.3,7.9-0.1,7.9-8,7.9C163.2,168.1,162,168.1,160.3,168.1z M160.3,165.4
		c9,0.9,10.2-0.1,9-7.3c0-0.3-0.1-0.6-0.2-0.9c-1-3.1-3.7-2.3-5.8-2.1c-1.1,0.1-2.8,1.5-2.9,2.5C160,160.1,160.3,162.7,160.3,165.4z
		"/>
	<path fill="#4869A6" d="M120.8,168.1c0,3.4,0,6.3,0,9.1c0,2.2,1.1,3.3,3.3,3.3c2.2-0.1,5,0.8,5.7-2.7c0.2-0.9,0-1.8,0.3-2.6
		c0.3-0.7,1-1.2,1.5-1.8c0.4,0.6,1.1,1.1,1.2,1.7c0.6,4.5-1.3,7.3-6,7.7c-4.6,0.5-9-0.7-8.6-6.8c0.3-5.6,0-11.3,0.1-17
		c0-4.4,0.9-5.8,5.3-6.4c5.5-0.8,9.6,0.8,9.4,7.3c-0.3,8.1-0.1,8.1-8.1,8.1C123.6,168.1,122.4,168.1,120.8,168.1z M129.8,165.5
		c0-2.8,0.3-5.5-0.1-8.1c-0.4-3.1-3.2-2.6-5.3-2.3c-1.3,0.2-3.2,1.3-3.4,2.3c-0.5,2.6-0.2,5.3-0.2,8.1
		C124,165.5,126.7,165.5,129.8,165.5z"/>
	<path fill="#4869A6" d="M68.9,168.1c0,3.4,0,6.3,0,9.1c0,2.2,1.1,3.4,3.3,3.3c2.2-0.1,5,0.9,5.7-2.7c0.1-0.8,0-1.6,0.3-2.4
		c0.3-0.8,1-1.4,1.5-2.1c0.4,0.7,1.1,1.3,1.2,2c0.4,4.8-1.6,7.4-6.6,7.5c-5.8,0.2-8.3-1.5-8-7.1c0.2-5.5,0-10.9,0.1-16.4
		c0-4.8,1-6.3,5.6-6.8c5.6-0.6,9.3,0.9,9.1,7.3c-0.2,8.1,0,8.1-8.1,8.1C71.6,168.1,70.5,168.1,68.9,168.1z M77.8,165.5
		c0-2.9,0.3-5.6-0.1-8.2c-0.5-3.1-3.3-2.5-5.3-2.2c-1.3,0.2-3.2,1.4-3.4,2.4c-0.5,2.6-0.2,5.3-0.2,8C72,165.5,74.6,165.5,77.8,165.5
		z"/>
	<path fill="#4869A6" d="M57.9,217.1c0-2.7,0-5.4,0-8c0-4.8,1-6.3,5.6-6.8c5.5-0.6,9.3,1,9.1,7.3c-0.2,5.4-0.1,10.7,0,16.1
		c0,2.6-0.5,5.1-3.2,6.1c-3.5,1.3-7.1,1.4-10-1.2c-0.8-0.7-1.2-2.3-1.2-3.5C57.8,223.8,57.9,220.4,57.9,217.1L57.9,217.1z
		 M60.5,217.2c0,3.2,0.1,6.4,0,9.5c-0.1,2.2,1,3.4,3.1,3.4c2.3,0,5.7,1,5.8-2.7c0.3-6.7,0.3-13.5,0-20.2c-0.2-3.5-3.4-2.5-5.7-2.6
		c-2.1,0-3.3,1-3.2,3.3C60.5,211,60.5,214.1,60.5,217.2z"/>
	<path fill="#4869A6" d="M7.1,145.4c0,4.8-0.1,9.4,0.1,13.9c0,0.5,1.3,1.4,2,1.5c2,0.2,4,0,6,0.1c0.6,0,1.1,0.8,1.7,1.2
		c-0.6,0.4-1.1,1.1-1.7,1.2c-1.8,0.2-3.6,0.2-5.4,0c-2.1-0.2-2.8,0.8-2.8,2.8c0.1,3.8,0,7.6,0,11.4c0,1.8,0.6,2.8,2.6,2.6
		c1.8-0.2,3.6-0.1,5.4,0c0.7,0.1,1.3,0.8,1.9,1.3c-0.6,0.4-1.2,1.1-1.8,1.1c-3,0.1-6,0.2-9,0c-0.7,0-1.9-1.2-1.9-1.9
		c-0.1-11.8-0.1-23.7,0-35.5c0-0.7,1.2-1.8,1.9-1.9c3-0.2,6-0.2,9,0c0.6,0,1.2,0.7,1.8,1.1c-0.6,0.4-1.2,1.2-1.9,1.3
		C12.5,145.5,10.1,145.4,7.1,145.4z"/>
	<path fill="#4869A6" d="M15,202.8c2.5-0.1,5.1-0.3,7.6-0.2c2.2,0.1,3.3,1.8,3.4,3.9c0.1,7.8,0.1,15.7,0.1,23.5
		c0,0.6-0.9,1.3-1.3,1.9c-0.4-0.7-1.2-1.5-1.3-2.2c-0.1-6.9-0.1-13.7,0-20.6c0-2.4,0.1-4.7-3.4-4.7c-3.3,0-5.5,2-5.5,5.1
		c0,6.3,0,12.5,0,18.8c0,0.6,0.1,1.2,0,1.8c-0.2,0.6-0.7,1.2-1.1,1.8c-0.5-0.6-1.4-1.2-1.4-1.8c-0.1-4.2-0.1-8.3-0.1-12.5
		c0-4.3,0-8.5,0-12.8c0-0.9,0.5-1.8,0.8-2.7c0.8,0.4,1.6,0.8,2.4,1.3C15.1,203.3,15,203.1,15,202.8z"/>
	<path fill="#4869A6" d="M141.3,154c0.5-0.3,1.2-0.7,2-1c4.6-2,8.8,0.5,8.9,5.5c0.1,7.1,0.1,14.1,0,21.2c0,0.9-0.9,1.8-1.4,2.7
		c-0.4-1-1.2-1.9-1.2-2.9c-0.1-6.8-0.1-13.5,0-20.3c0-2.5-0.3-4.4-3.4-4.3c-3,0.1-5.4,2-5.4,4.6c0,6.1,0,12.1,0,18.2
		c0,0.6,0.1,1.2,0,1.8c-0.3,1-0.8,1.9-1.2,2.9c-0.5-0.9-1.3-1.8-1.3-2.8c-0.1-5.2-0.1-10.3-0.1-15.5c0-2.9-0.1-5.8,0-8.6
		c0-1,0.6-1.9,0.9-2.9C139.6,153,140.4,153.5,141.3,154z"/>
	<path fill="#4869A6" d="M25.1,153.9c0.5-0.2,1.4-0.8,2.3-1.1c4.3-1.5,8.2,1,8.3,5.5c0.1,7.2,0.1,14.3,0,21.5c0,0.9-1,1.8-1.5,2.6
		c-0.4-0.9-1.1-1.8-1.1-2.6c-0.1-6.8,0-13.5-0.1-20.3c0-3.8-0.6-4.5-3.5-4.5c-3.1,0-5.4,2-5.4,4.9c0,6.4,0,12.7,0,19.1
		c0,0.6,0.2,1.3,0,1.8c-0.3,0.6-0.8,1.1-1.3,1.6c-0.4-0.5-1.2-1.1-1.2-1.7c-0.2-1.7-0.1-3.4-0.1-5.1c0-6.9,0-13.7,0-20.6
		c0-0.8,0.4-1.6,0.7-2.4C22.9,153,23.7,153.3,25.1,153.9z"/>
	<path fill="#4869A6" d="M143.5,226.7c0.4-0.9,1-1.7,1.2-2.6c1.4-6.7,2.7-13.4,4.2-20.1c0.2-0.8,1-1.5,1.6-2.3
		c0.4,0.2,0.8,0.4,1.2,0.5c-0.7,3.3-1.3,6.7-2,10c-1.4,6.9-2.8,13.8-4.2,20.6c-0.7,3.3-2.6,5-5.4,5c-0.6,0-1.2-0.7-1.8-1
		c0.4-0.5,0.8-1.3,1.2-1.3c4.3-0.1,3.4-3.6,4-5.2c-1.3-1.6-2.7-2.5-3.1-3.7c-2-7.5-3.8-15.1-5.7-22.7c-0.1-0.5-0.1-1-0.1-1.5
		c2.2-1.2,2.5,0.5,2.9,2c1.5,6.3,3,12.5,4.5,18.8c0.3,1.1,0.6,2.2,0.9,3.3C143,226.6,143.2,226.6,143.5,226.7z"/>
	<path fill="#4869A6" d="M188.5,181.6c-2.5,0.3-5,0.9-7.5,0.8c-2.3-0.1-3.4-1.9-3.4-4.2c-0.1-8-0.1-15.9,0-23.9
		c0-0.6,0.9-1.2,1.3-1.8c0.4,0.7,1.1,1.3,1.2,2c0.1,7.1,0.1,14.1,0.1,21.2c0,2.4-0.1,4.7,3.3,4.8c3.2,0.1,5.8-1.9,5.8-5
		c0.1-6.5,0-12.9,0.1-19.4c0-1.2,0.7-2.4,1.1-3.6c0.4,1.2,1.2,2.3,1.2,3.5c0.1,7.8,0.1,15.5,0,23.3c0,1-0.6,1.9-0.9,2.9
		c-0.8-0.5-1.6-0.9-2.4-1.4C188.4,181.2,188.4,181.4,188.5,181.6z"/>
	<path fill="#4869A6" d="M208,176.6c0-0.5-0.2-1.2,0-1.7c0.2-0.5,0.7-1,1.1-1.5c0.4,0.5,1,1,1.3,1.6c0.2,0.4,0,1,0.1,1.5
		c0.2,3.2,1,4,4.2,4.1c3.3,0,4.1-0.7,4.3-3.8c0.2-3.3-0.2-6.3-3.7-7.9c-1.2-0.5-2.1-1.6-3.2-2.2c-3.1-1.6-4-4.1-3.8-7.4
		c0.2-2.3-0.1-4.7,2.6-5.8c3.1-1.3,6.2-1.4,9,0.5c1.4,1,2.3,5.6,1.3,6.9c-0.2,0.3-0.7,0.5-1,0.5c-0.3,0-0.7-0.4-0.8-0.7
		c-0.1-0.7-0.1-1.4-0.1-2.1c0.1-2.7-1.2-3.7-3.9-3.7c-2.6,0-4.6,0.3-4.7,3.5c-0.1,2.9,0.2,5.5,3.2,7c1.2,0.6,2.2,1.7,3.4,2.3
		c4.2,2.3,4.8,6,4.3,10.2c-0.4,3.1-1.9,4.6-5.7,5C211.8,183.3,207.2,182.1,208,176.6z"/>
	<path fill="#4869A6" d="M40.1,226.2c0-0.5-0.2-1.3,0.1-1.9c0.2-0.5,0.8-1,1.3-1.2c0.2-0.1,0.8,0.7,1,1.1c0.2,0.4,0.1,1,0.1,1.5
		c0.2,3.6,1,4.5,4.4,4.4c3.2,0,4-0.8,4.1-4.4c0.1-3-0.2-5.7-3.5-7.2c-1.2-0.5-2.2-1.7-3.4-2.3c-3-1.6-4.1-4-3.9-7.4
		c0.2-2.3-0.2-4.7,2.5-5.8c3.1-1.3,6.1-1.5,9.1,0.4c1.5,1,2.3,5.4,1.4,6.9c-0.2,0.3-0.6,0.6-0.9,0.6c-0.3,0-0.8-0.4-0.8-0.6
		c-0.2-0.6-0.1-1.2-0.1-1.8c-0.2-3.5-0.8-4-4.7-4c-3,0.1-3.8,1-3.9,4.2c0,2.7,0.6,4.8,3.2,6.2c1.3,0.7,2.4,1.8,3.7,2.5
		c4.3,2.4,4.6,6.3,4,10.6c-0.4,3.2-2.9,4.2-5.5,4.4C44,232.9,39.3,231.7,40.1,226.2z"/>
	<path fill="#4869A6" d="M77.6,217.5c0-3.1,0-6.2,0-9.3c0.1-4.3,0.5-4.8,4.7-5.9c6-1.5,9.7,1.9,8.6,7.8c-0.1,0.5-0.7,1-1.1,1.5
		c-0.5-0.5-1-1-1.3-1.6c-0.2-0.3-0.1-0.8,0-1.2c0.3-5-2.5-4.8-6.3-4.1c-0.7,0.1-1.8,1.5-1.8,2.3c-0.1,6.8-0.1,13.5-0.1,20.3
		c0,2.1,1.3,2.7,3.2,2.7c2.1,0,4.4,0.4,4.9-2.5c0.2-1.1,0-2.2,0.2-3.3c0.1-0.5,0.8-0.9,1.2-1.3c0.4,0.5,1.1,0.9,1.2,1.4
		c0.1,2.6,0.7,5.5-2.3,7.2c-2.8,1.6-8,1.3-9.8-0.7c-0.7-0.8-0.8-2.1-1.1-3.2c-0.1-0.2,0-0.4,0-0.6C77.6,223.9,77.6,220.7,77.6,217.5
		z"/>
	<path fill="#4869A6" d="M126.1,201.2c0-1.8-0.1-4.2,0.1-6.5c0.1-0.7,0.9-1.4,1.3-2.1c0.4,0.7,1,1.4,1.1,2.1
		c0.1,2.4,0.1,4.7,0.1,6.4c1.6,1,2.6,1.7,3.6,2.4c-1,0.6-2.1,1.1-3.5,1.9c0,6.8-0.1,14.1,0.1,21.5c0,0.9,1.7,1.8,2.6,2.7
		c0.5,0.5,0.9,1.1,1.4,1.7c-0.7,0.2-1.4,0.7-2,0.6c-3.1-0.5-4.6-2.3-4.6-5.5c0-6.1,0-12.1,0-18.2c0-1.1,0-2.1,0-2.6
		c-1.5-1-2.5-1.6-3.6-2.3C123.6,202.6,124.6,202.1,126.1,201.2z"/>
	<path fill="#4869A6" d="M43.1,155.9c-1.6-0.9-2.6-1.5-3.6-2.1c0.9-0.6,1.9-1.3,2.8-1.9c0.3,0.1,0.5,0.3,0.8,0.4
		c0-2.4-0.1-4.9,0.1-7.3c0-0.7,0.7-1.3,1.1-2c0.4,0.6,1.2,1.3,1.2,1.9c0.2,2.4,0.1,4.7,0.1,6.7c1.5,0.8,2.5,1.4,3.6,2.1
		c-0.9,0.6-1.9,1.3-3.5,2.3c0,0-0.1,0.9-0.1,1.7c0,5.9,0,11.7,0,17.6c0,2.3,0.1,4.5,3.2,4.8c0.4,0,0.7,0.9,1,1.5
		c-0.5,0.3-1.1,0.9-1.6,0.9c-3-0.1-5-2.3-5.1-5.5C43,169.8,43.1,162.6,43.1,155.9z"/>
	<path fill="#4869A6" d="M109.2,154.1c1.4-0.5,2.7-1.2,4.1-1.5c0.4-0.1,1,0.6,1.5,0.9c-0.4,0.5-0.7,1.2-1.2,1.4
		c-5.4,1.6-5.4,1.6-5.4,7c0,5.9,0.1,11.7-0.1,17.6c0,1-0.8,1.9-1.2,2.9c-0.5-0.9-1.3-1.8-1.3-2.8c-0.1-8.1-0.1-16.1,0-24.2
		c0-0.9,0.4-1.8,0.6-2.8C107.2,153.1,108.1,153.6,109.2,154.1z"/>
	<path fill="#4869A6" d="M200,154.2c1.2-0.5,2.5-1.2,3.8-1.5c0.5-0.1,1.3,0.5,1.9,0.8c-0.5,0.5-0.8,1.3-1.4,1.5
		c-4.8,1.2-5.2,1.5-5.2,6.3c0,6.3,0.1,12.5-0.1,18.8c0,0.8-0.9,1.6-1.4,2.4c-0.4-0.8-1.1-1.6-1.1-2.4c-0.1-8.3-0.1-16.5,0-24.8
		c0-0.9,0.5-1.8,0.8-2.6C198.1,153.1,198.9,153.5,200,154.2z"/>
	<path fill="#4869A6" d="M57.8,154.1c1.1-0.5,2.4-1.2,3.7-1.5c0.5-0.1,1.3,0.5,1.9,0.7c-0.4,0.5-0.8,1.4-1.3,1.5
		c-5,1.3-5.2,1.5-5.2,6.6c0,6.1,0.1,12.1-0.1,18.2c0,0.9-0.9,1.8-1.3,2.7c-0.4-0.9-1.2-1.7-1.2-2.6c-0.1-8.2-0.1-16.3,0-24.5
		c0-0.9,0.5-1.8,0.8-2.7C55.9,153.1,56.7,153.5,57.8,154.1z"/>
	<path fill="#4869A6" d="M6.7,217.4c0,4.1,0.1,8.1-0.1,12.2c0,0.8-0.7,1.6-1.1,2.4c-0.4-0.7-1.3-1.5-1.3-2.2
		c-0.1-8.5-0.1-17.1,0-25.6c0-0.7,0.7-1.4,1.1-2.1c0.4,0.7,1.2,1.4,1.3,2.2C6.8,208.7,6.7,213.1,6.7,217.4z"/>
	<path fill="#4869A6" d="M96.3,216.7c0-4.2-0.1-8.3,0-12.5c0-0.7,0.7-1.4,1.1-2.1c0.5,0.7,1.3,1.4,1.3,2.1c0.1,8.5,0.1,17.1,0,25.6
		c0,0.7-0.7,1.4-1.1,2.1c-0.5-0.7-1.3-1.4-1.3-2.1C96.2,225.5,96.3,221.1,96.3,216.7z"/>
	<path fill="#4869A6" d="M248.1,167.8c0,4.1,0.1,8.1-0.1,12.2c0,0.8-0.7,1.6-1.1,2.4c-0.4-0.7-1.3-1.4-1.3-2.2
		c-0.1-8.5-0.1-17.1,0-25.6c0-0.7,0.7-1.4,1.1-2.1c0.4,0.7,1.2,1.4,1.3,2.2C248.2,159.1,248.1,163.5,248.1,167.8z"/>
	<path fill="#4869A6" d="M5.3,198.7c-0.6-1-1.1-1.6-1-2.1c0-0.4,0.8-1.1,1.1-1c0.5,0.1,1.2,0.7,1.3,1.2C6.7,197.2,6,197.7,5.3,198.7
		z"/>
	<path fill="#4869A6" d="M97.6,198.6c-0.7-0.9-1.3-1.4-1.4-1.9c0-0.4,0.6-1.2,0.9-1.2c0.5,0.1,1.3,0.5,1.4,1
		C98.7,197,98.2,197.6,97.6,198.6z"/>
	<path fill="#4869A6" d="M248.8,147.1c-1.1,0.6-1.6,1.1-2.1,1.2c-0.4,0-1.2-0.7-1.1-1c0.1-0.5,0.6-1.2,1.1-1.3
		C247.2,145.9,247.8,146.5,248.8,147.1z"/>
</g>
</svg>
