<?xml version="1.0" encoding="utf-8"?>
<!-- Generator: Adobe Illustrator 18.1.1, SVG Export Plug-In . SVG Version: 6.00 Build 0)  -->
<svg version="1.1" id="Layer_1" xmlns="http://www.w3.org/2000/svg" xmlns:xlink="http://www.w3.org/1999/xlink" x="0px" y="0px"
	 viewBox="0 0 253.3 166" enable-background="new 0 0 253.3 166" xml:space="preserve">
<g>
	<g id="Shape_17_1_">
		<g>
			<path fill="#4869A6" d="M253.3,21c0-5.4-2.1-10.3-5.5-14c-0.1-0.1-0.1-0.2-0.1-0.2c-0.1-0.1-0.1-0.1-0.2-0.2
				C243.5,2.6,238.1,0,232,0H21.3C15.2,0,9.7,2.6,5.9,6.6C5.8,6.7,5.7,6.7,5.7,6.8C5.6,6.8,5.6,6.9,5.5,7C2.1,10.7,0,15.6,0,21v124
				c0,5.5,2.2,10.5,5.8,14.3c0.1,0.1,0.1,0.2,0.2,0.2c0,0,0.1,0,0.1,0.1c3.9,3.9,9.3,6.4,15.3,6.4H232c6,0,11.4-2.5,15.3-6.4
				c0,0,0.1,0,0.1-0.1c0.1-0.1,0.1-0.2,0.2-0.2c3.6-3.8,5.8-8.8,5.8-14.3L253.3,21L253.3,21z M170.4,76.5l73-60.5
				c0.7,1.6,1.1,3.3,1.1,5.1v124c0,1.6-0.3,3.2-0.9,4.6L170.4,76.5z M232,8.7c1.8,0,3.6,0.4,5.1,1.1l-110.5,91.6L16.1,9.8
				c1.6-0.7,3.3-1.1,5.1-1.1H232z M9.7,149.6c-0.6-1.4-0.9-3-0.9-4.6V21c0-1.8,0.4-3.5,1.1-5.1l73,60.5L9.7,149.6z M21.3,157.4
				c-2,0-3.9-0.5-5.6-1.4l74-73.9l34.2,28.3c0.8,0.7,1.8,1,2.8,1c1,0,2-0.3,2.8-1L163.6,82l74,73.9c-1.7,0.8-3.6,1.4-5.6,1.4H21.3
				L21.3,157.4z"/>
		</g>
	</g>
</g>
</svg>
