<?xml version="1.0" encoding="utf-8"?>
<!-- Generator: Adobe Illustrator 18.1.1, SVG Export Plug-In . SVG Version: 6.00 Build 0)  -->
<svg version="1.1" id="Layer_1" xmlns="http://www.w3.org/2000/svg" xmlns:xlink="http://www.w3.org/1999/xlink" x="0px" y="0px"
	 viewBox="0 0 114.2 114.2" enable-background="new 0 0 114.2 114.2" xml:space="preserve">
<g>
	<g>
		<path fill="#4869A6" d="M68.3,57.1L112,13.5c3.1-3.1,3.1-8.1,0-11.2c-3.1-3.1-8.1-3.1-11.2,0L57.1,46L13.5,2.3
			c-3.1-3.1-8.1-3.1-11.2,0s-3.1,8.1,0,11.2L46,57.1L2.3,100.8c-3.1,3.1-3.1,8.1,0,11.2c3.1,3.1,8.1,3.1,11.2,0l43.7-43.7l43.7,43.7
			c3.1,3.1,8.1,3.1,11.2,0c3.1-3.1,3.1-8.1,0-11.2L68.3,57.1z"/>
	</g>
</g>
</svg>
