<?xml version="1.0" encoding="utf-8"?>
<!-- Generator: Adobe Illustrator 18.1.1, SVG Export Plug-In . SVG Version: 6.00 Build 0)  -->
<svg version="1.1" id="Layer_1" xmlns="http://www.w3.org/2000/svg" xmlns:xlink="http://www.w3.org/1999/xlink" x="0px" y="0px"
	 viewBox="0 0 278.1 240.1" enable-background="new 0 0 278.1 240.1" xml:space="preserve">
<g>
	<path fill="#4869A6" d="M242.6,46.1H4.6c-2.1,0-3.9,1.7-3.9,3.9v186c0,2.2,1.7,3.9,3.9,3.9h237.9c2.2,0,3.9-1.7,3.9-3.9V50
		C246.5,47.8,244.7,46.1,242.6,46.1z M223.1,208.9l-53.5-55.5c-0.6-0.6-1.6-0.7-2.2-0.1L130.2,186l-47.5-58.4
		c-0.3-0.4-0.8-0.6-1.3-0.6c-0.5,0-0.9,0.2-1.2,0.6l-56.1,75.3V69.4h199L223.1,208.9L223.1,208.9z"/>
	<path fill="#4869A6" d="M164.3,125.7c10.5,0,19.1-8.6,19.1-19.1c0-10.5-8.6-19.1-19.1-19.1c-10.6,0-19.1,8.6-19.1,19.1
		C145.2,117.1,153.8,125.7,164.3,125.7z"/>
</g>
<g>
	<path fill="#81AF69" d="M234.9,17.9l17.3-0.1l-0.1-17.6l8.6-0.1l0.1,17.6l17-0.1l0.1,7.9l-17,0.1L261,43l-8.6,0.1l-0.1-17.4
		L235,25.8L234.9,17.9z"/>
</g>
</svg>
